<svg width="20" height="12" viewBox="0 0 20 12" fill="none" xmlns="http://www.w3.org/2000/svg">
<path fill-rule="evenodd" clip-rule="evenodd" d="M0 6C1.57273 2.488 5.45455 0 10 0C14.5455 0 18.4273 2.488 20 6C18.4273 9.512 14.5455 12 10 12C5.45455 12 1.57273 9.512 0 6ZM18.0178 5.99961C16.5178 3.30361 13.4451 1.59961 9.99963 1.59961C6.55417 1.59961 3.48145 3.30361 1.98145 5.99961C3.48145 8.69561 6.55417 10.3996 9.99963 10.3996C13.4451 10.3996 16.5178 8.69561 18.0178 5.99961ZM10.0003 4.00028C11.2548 4.00028 12.273 4.89628 12.273 6.00028C12.273 7.10428 11.2548 8.00028 10.0003 8.00028C8.74572 8.00028 7.72754 7.10428 7.72754 6.00028C7.72754 4.89628 8.74572 4.00028 10.0003 4.00028ZM5.90918 5.99983C5.90918 4.01583 7.74554 2.39983 10.0001 2.39983C12.2546 2.39983 14.091 4.01583 14.091 5.99983C14.091 7.98383 12.2546 9.59983 10.0001 9.59983C7.74554 9.59983 5.90918 7.98383 5.90918 5.99983Z" fill="#777777"/>
</svg>
