<svg width="20" height="16" viewBox="0 0 20 16" fill="none" xmlns="http://www.w3.org/2000/svg">
<path fill-rule="evenodd" clip-rule="evenodd" d="M3.35455 3.42559L0.918182 1.18642L2.2 0L18.3182 14.8219L17.0364 16L13.9273 13.1426C12.7091 13.5854 11.3818 13.8277 10 13.8277C5.45455 13.8277 1.57273 11.2292 0 7.56136C0.7 5.91541 1.87273 4.49504 3.35455 3.42559ZM10.0005 2.96589C13.446 2.96589 16.5187 4.74553 18.0187 7.56119C17.4823 8.58052 16.7278 9.4578 15.8278 10.168L17.1096 11.3461C18.3732 10.3184 19.3732 9.03169 20.0005 7.56119C18.4278 3.89331 14.546 1.29488 10.0005 1.29488C8.84595 1.29488 7.73686 1.46198 6.69141 1.77112L8.19141 3.14971C8.78232 3.04109 9.38232 2.96589 10.0005 2.96589ZM9.02734 3.91837L10.9092 5.64788C11.4273 5.85676 11.8455 6.24109 12.0728 6.71733L13.9546 8.44683C14.0273 8.16276 14.0819 7.86198 14.0819 7.55284C14.091 5.48078 12.2546 3.8014 10.0001 3.8014C9.66371 3.8014 9.34553 3.84318 9.02734 3.91837ZM7.73663 7.45268L10.1094 9.63336C10.073 9.64171 10.0366 9.65007 10.0003 9.65007C8.74572 9.65007 7.72754 8.7143 7.72754 7.56129C7.72754 7.54041 7.72981 7.5237 7.73208 7.50699L7.73208 7.50698C7.73436 7.49027 7.73663 7.47356 7.73663 7.45268ZM6.23599 6.07376L4.64508 4.61162C3.54508 5.38029 2.61781 6.36619 1.98145 7.56097C3.48145 10.3766 6.55417 12.1563 9.99963 12.1563C10.8633 12.1563 11.6996 12.0393 12.4996 11.8388L11.6087 11.02C11.1178 11.2121 10.5724 11.3208 9.99963 11.3208C7.74508 11.3208 5.90872 9.63303 5.90872 7.56097C5.90872 7.0346 6.0269 6.53329 6.23599 6.07376Z" fill="#BEBEBE" fill-opacity="0.8"/>
</svg>
